<?xml version="1.0" standalone="no"?>
<!DOCTYPE svg PUBLIC "-//W3C//DTD SVG 20010904//EN"
 "http://www.w3.org/TR/2001/REC-SVG-20010904/DTD/svg10.dtd">
<svg version="1.0" xmlns="http://www.w3.org/2000/svg"
 width="980.000000pt" height="984.000000pt" viewBox="0 0 980.000000 984.000000"
 preserveAspectRatio="xMidYMid meet">
<metadata>
Created by potrace 1.16, written by Peter Selinger 2001-2019
</metadata>
<g transform="translate(0.000000,984.000000) scale(0.100000,-0.100000)"
fill="#000000" stroke="none">
<path d="M0 9813 c0 -68 35 -443 61 -643 130 -1037 398 -1966 767 -2655 542
-1015 1318 -1545 2260 -1545 l115 0 -7 141 c-22 463 -152 1064 -353 1629 -93
262 -228 591 -302 739 -17 33 -31 63 -31 67 0 9 105 -134 250 -341 658 -937
1104 -1747 1504 -2735 241 -595 416 -1353 510 -2220 51 -465 72 -796 86 -1370
14 -569 11 -538 53 -624 45 -90 122 -165 214 -209 64 -30 74 -32 183 -32 111
0 118 1 185 34 126 62 217 179 245 316 28 134 -7 1115 -61 1690 -11 121 -20
238 -20 260 0 56 91 411 156 608 98 298 219 570 359 807 35 58 102 177 151
265 273 496 605 988 929 1375 247 295 595 630 834 801 52 37 51 36 -59 -101
-388 -485 -678 -1031 -789 -1484 -26 -104 -60 -306 -60 -353 0 -14 21 -15 198
-10 222 6 363 30 552 93 898 299 1520 1307 1780 2884 39 236 90 707 90 828 l0
25 -112 -7 c-348 -21 -847 -95 -1219 -181 -1115 -257 -1893 -699 -2283 -1297
-283 -435 -360 -947 -230 -1545 l26 -122 -104 -114 c-205 -224 -382 -465 -504
-684 -16 -29 -32 -53 -35 -53 -3 0 -25 66 -49 148 -151 515 -380 1043 -612
1412 l-60 95 46 185 c82 328 109 534 109 830 1 416 -71 734 -245 1084 -182
368 -491 711 -889 988 -675 471 -1651 806 -2819 967 -209 29 -521 60 -681 67
-136 7 -139 7 -139 -13z"/>
</g>
</svg>
